<?xml version="1.0" standalone="no"?>
<!DOCTYPE svg PUBLIC "-//W3C//DTD SVG 20010904//EN"
 "http://www.w3.org/TR/2001/REC-SVG-20010904/DTD/svg10.dtd">
<svg version="1.0" xmlns="http://www.w3.org/2000/svg"
 width="512.000000pt" height="512.000000pt" viewBox="0 0 512.000000 512.000000"
 preserveAspectRatio="xMidYMid meet">
<metadata>
Created by potrace 1.14, written by Peter Selinger 2001-2017
</metadata>
<g transform="translate(0.000000,512.000000) scale(0.100000,-0.100000)"
fill="#000000" stroke="none">
<path d="M1708 4777 c-30 -28 -34 -50 -18 -92 11 -30 35 -40 110 -48 99 -11
160 -40 238 -111 36 -34 92 -113 92 -130 0 -4 -24 -17 -52 -30 -88 -41 -203
-121 -288 -202 -132 -126 -221 -261 -280 -423 -27 -75 -36 -106 -55 -196 -11
-51 -13 -257 -3 -328 10 -75 50 -222 75 -277 9 -19 27 -57 40 -85 l25 -50 -98
95 c-141 136 -160 158 -147 179 16 26 6 71 -22 101 -14 14 -22 30 -18 35 5 4
3 5 -4 1 -7 -4 -34 9 -62 29 -55 39 -144 79 -218 96 -137 32 -335 8 -441 -54
-243 -140 -378 -412 -332 -669 29 -159 126 -317 258 -418 l32 -25 -26 -80
c-66 -207 -6 -444 149 -587 165 -153 441 -186 643 -78 l54 28 1 -36 c2 -86 11
-160 29 -241 26 -111 25 -107 49 -169 90 -228 249 -424 455 -563 84 -57 244
-139 270 -139 7 0 17 -5 24 -12 7 -7 12 -9 12 -5 0 3 18 0 39 -8 22 -7 56 -16
78 -20 21 -3 61 -10 88 -15 53 -9 302 -7 345 4 14 3 39 8 55 12 71 14 218 66
289 104 381 198 636 576 662 979 1 25 3 60 3 78 l1 31 65 -33 c242 -121 551
-51 699 159 111 157 139 355 75 535 l-19 55 32 25 c102 79 192 203 235 327 23
68 27 95 27 194 0 95 -4 127 -23 183 -97 286 -339 461 -621 451 -47 -2 -96 -5
-110 -8 -14 -3 -38 -8 -53 -12 -16 -3 -40 -12 -55 -20 -15 -8 -32 -14 -38 -14
-17 0 -132 -77 -172 -115 -29 -27 -36 -40 -35 -70 1 -21 5 -41 10 -46 6 -6
-37 -56 -114 -132 -69 -67 -127 -124 -130 -127 -3 -3 9 24 27 60 58 116 89
217 108 350 13 96 6 302 -14 380 -84 335 -287 594 -590 755 -38 20 -71 38 -72
40 -9 9 53 97 96 137 63 59 144 96 228 104 103 10 139 44 117 111 -14 42 -47
55 -123 49 -180 -14 -364 -136 -440 -290 -32 -64 -32 -64 -63 -55 -112 33
-380 33 -493 0 -30 -8 -32 -7 -56 43 -40 81 -105 153 -184 207 -41 27 -74 47
-74 43 0 -4 -6 -2 -12 3 -25 20 -114 44 -183 49 -65 6 -72 5 -97 -19z"/>
</g>
</svg>
